<svg width="24" height="24" viewBox="0 0 40 40" fill="none" xmlns="http://www.w3.org/2000/svg">
<g clip-path="url(#clip0_76_27875)">
<path d="M39.0134 13.9284C38.4342 15.2972 37.5947 16.6336 36.4947 17.9378C35.1853 19.4941 33.9165 21.0784 32.6384 22.6566C31.2009 24.4347 29.5853 25.9597 27.654 23.6753C25.0124 20.5524 23.028 18.0847 21.7009 16.2722C17.854 11.0191 19.804 3.63468 25.8415 1.06905C33.8978 -2.35595 42.404 5.93155 39.0134 13.9284ZM28.8322 2.27218C22.4603 2.96905 19.3947 10.3034 23.3322 15.3441C25.2197 17.7586 27.203 20.2086 29.2822 22.6941C29.453 22.8982 29.6519 22.9305 29.879 22.7909C30.0124 22.7076 30.1853 22.5378 30.3978 22.2816C31.6186 20.8086 32.8322 19.3305 34.0384 17.8472C35.7551 15.7388 36.8197 14.1628 37.2322 13.1191C39.4322 7.53155 34.8197 1.61593 28.8322 2.27218Z" fill="currentcolor"/>
<path d="M33.6246 30.4556C33.8142 30.8952 33.7444 31.3327 33.4153 31.7681C29.1694 37.4077 23.6955 40.0077 16.9934 39.5681C14.8496 39.4264 12.8434 38.9244 10.9746 38.0619C-0.0128586 32.9962 -3.16286 19.0306 4.62464 9.77747C7.82672 5.97331 12.0309 3.86289 17.2371 3.44622C18.884 3.31185 18.9684 5.22122 17.3934 5.3306C16.1965 5.41185 12.2653 5.87122 11.959 7.21185C11.9473 7.26278 11.9468 7.31551 11.9576 7.36628C11.9684 7.41705 11.9902 7.46462 12.0215 7.5056C12.9965 8.79622 14.0403 9.78997 14.8903 11.1993C16.5778 14.0056 16.2288 16.3993 13.8434 18.3806C11.8559 20.0337 10.5403 21.6931 10.284 24.3056C10.0965 26.2181 10.7403 28.7806 8.69027 29.8462C7.93089 30.24 6.74652 30.1681 6.07152 30.4587C5.4736 30.7171 5.42881 31.1691 5.93714 31.815C7.61006 33.9358 9.51839 35.4348 11.6621 36.3118C12.1726 36.5202 12.5642 36.3212 12.8371 35.715C14.1528 32.7869 16.1309 29.2994 19.6028 28.9212C20.4736 28.8275 21.7257 28.9556 23.359 29.3056C25.7882 29.8264 28.2132 30.3671 30.634 30.9275C31.9059 31.2212 32.0434 29.6087 33.5215 30.1056C33.6278 30.1431 33.6673 30.215 33.6403 30.3212L33.6215 30.3993C33.6153 30.4181 33.6163 30.4368 33.6246 30.4556Z" fill="currentcolor"/>
<path d="M34.1798 25.1717C33.9603 26.1147 34.2321 26.9838 34.7868 27.1129C35.3416 27.242 35.9691 26.5822 36.1886 25.6391C36.408 24.6961 36.1362 23.827 35.5815 23.6979C35.0268 23.5688 34.3992 24.2286 34.1798 25.1717Z" fill="currentcolor"/>
</g>
<defs>
<clipPath id="clip0_76_27875">
<rect width="40" height="40" fill="white"/>
</clipPath>
</defs>
</svg>
