<svg width="100" height="100" viewBox="0 0 100 100" fill="none" xmlns="http://www.w3.org/2000/svg">
<rect x="1.5" y="1.5" width="97" height="97" rx="6.5" fill="#CCB8AD" stroke="#2F1D03" stroke-width="3"/>
<path d="M68.2812 20.5918C67.0703 22.3301 65.9277 26.9883 64.8535 34.5664C63.916 41.2656 63.4766 46.4902 63.5352 50.2402C63.6133 53.9902 64.2285 55.8652 65.3809 55.8652C65.5957 55.8652 65.8984 55.7871 66.2891 55.6309C66.6992 55.4746 67.0117 55.3965 67.2266 55.3965C67.6172 55.3965 67.8125 55.543 67.8125 55.8359C67.8125 56.0508 67.666 56.2852 67.373 56.5391C66.3965 57.3984 64.9023 58.3555 62.8906 59.4102C62.4023 59.6641 61.9824 59.791 61.6309 59.791C59.7168 59.791 59.0332 54.9473 59.5801 45.2598C54.8926 45.5332 50.4688 45.9141 46.3086 46.4023L40.5078 53.4922C41.543 53.375 41.9336 53.3164 41.6797 53.3164C42.6172 53.3164 43.3398 54.2734 43.8477 56.1875C43.9844 56.6367 44.0527 56.9883 44.0527 57.2422C44.0527 57.7109 43.8477 57.9453 43.4375 57.9453C43.2422 57.9453 42.9492 57.8965 42.5586 57.7988C42.1875 57.7012 41.8945 57.6523 41.6797 57.6523C40.0195 57.6523 37.7832 58.541 34.9707 60.3184C34.1309 60.8457 33.7109 61.1094 33.7109 61.1094C33.5547 61.1094 33.2617 60.9629 32.832 60.6699C31.9141 60.0449 31.2695 59.293 30.8984 58.4141C30.6641 57.8086 31.0059 57.2031 31.9238 56.5977C33.1348 55.8164 34.7949 54.498 36.9043 52.6426C39.0137 50.7871 40.3906 49.4492 41.0352 48.6289C40.8594 46.8516 40.7715 45.9238 40.7715 45.8457C40.8105 44.7324 41.2305 44.0098 42.0312 43.6777C42.7344 43.3848 43.9844 43.1895 45.7812 43.0918C50.625 37.1934 54.5215 31.4316 57.4707 25.8066C56.5137 26.3145 54.7949 26.9688 52.3145 27.7695C48.3496 29.0586 45.6152 29.9668 44.1113 30.4941C41.9824 31.2559 40.918 32.584 40.918 34.4785C40.918 34.8691 40.957 35.2988 41.0352 35.7676C41.1523 36.4902 40.9668 36.8516 40.4785 36.8516C40.127 36.8516 39.873 36.6953 39.7168 36.3828C38.6426 34.1367 38.0078 32.5547 37.8125 31.6367C37.6367 30.8164 37.5488 30.3867 37.5488 30.3477C37.5488 29.6641 37.8711 29.0391 38.5156 28.4727C39.6875 27.4766 41.9141 26.7344 45.1953 26.2461C50.1172 25.5039 54.3555 24.3418 57.9102 22.7598C58.3398 22.3301 58.5742 22.0859 58.6133 22.0273C58.7109 21.8906 58.8086 21.627 58.9062 21.2363C59.0234 20.8457 59.2188 20.6504 59.4922 20.6504C59.9414 20.6504 60.6152 21.1289 61.5137 22.0859C61.8066 22.418 61.9531 22.75 61.9531 23.082C61.9531 23.2773 61.6211 23.9512 60.957 25.1035C59.5117 27.6621 57.5781 30.7578 55.1562 34.3906C52.4609 38.4531 50.3711 41.334 48.8867 43.0332C53.5352 43.0332 57.1777 42.916 59.8145 42.6816C60.0879 39.9473 60.6836 36.0508 61.6016 30.9922C62.0703 28.5117 62.5391 26.0313 63.0078 23.5508C63.3008 21.4414 64.7168 19.8984 67.2559 18.9219C67.6465 18.7656 67.9688 18.6875 68.2227 18.6875C68.6523 18.6875 68.8672 18.873 68.8672 19.2441C68.8672 19.5957 68.6719 20.0449 68.2812 20.5918Z" fill="black"/>
<path d="M30.7812 70.1621H69.1895V73.6777H30.7812V70.1621Z" fill="black"/>
<ellipse cx="18" cy="14" rx="6" ry="6" fill="#2F1D03"/>
<ellipse cx="82" cy="14" rx="6" ry="6" fill="#2F1D03"/>
<ellipse cx="18" cy="86" rx="6" ry="6" fill="#2F1D03"/>
<ellipse cx="82" cy="86" rx="6" ry="6" fill="#2F1D03"/>
</svg>
