<svg width="221" height="100" viewBox="0 0 221 100" fill="none" xmlns="http://www.w3.org/2000/svg">
<rect x="1.5" y="1.5" width="217" height="97" rx="6.5" fill="#CCB8AD" stroke="#2F1D03" stroke-width="3"/>
<path d="M58.5 20.5918C57.2891 22.3301 56.1465 26.9883 55.0723 34.5664C54.1348 41.2656 53.6953 46.4902 53.7539 50.2402C53.832 53.9902 54.4473 55.8652 55.5996 55.8652C55.8145 55.8652 56.1172 55.7871 56.5078 55.6309C56.918 55.4746 57.2305 55.3965 57.4453 55.3965C57.8359 55.3965 58.0312 55.543 58.0312 55.8359C58.0312 56.0508 57.8848 56.2852 57.5918 56.5391C56.6152 57.3984 55.1211 58.3555 53.1094 59.4102C52.6211 59.6641 52.2012 59.791 51.8496 59.791C49.9355 59.791 49.252 54.9473 49.7988 45.2598C45.1113 45.5332 40.6875 45.9141 36.5273 46.4023L30.7266 53.4922C31.7617 53.375 32.1523 53.3164 31.8984 53.3164C32.8359 53.3164 33.5586 54.2734 34.0664 56.1875C34.2031 56.6367 34.2715 56.9883 34.2715 57.2422C34.2715 57.7109 34.0664 57.9453 33.6562 57.9453C33.4609 57.9453 33.168 57.8965 32.7773 57.7988C32.4062 57.7012 32.1133 57.6523 31.8984 57.6523C30.2383 57.6523 28.002 58.541 25.1895 60.3184C24.3496 60.8457 23.9297 61.1094 23.9297 61.1094C23.7734 61.1094 23.4805 60.9629 23.0508 60.6699C22.1328 60.0449 21.4883 59.293 21.1172 58.4141C20.8828 57.8086 21.2246 57.2031 22.1426 56.5977C23.3535 55.8164 25.0137 54.498 27.123 52.6426C29.2324 50.7871 30.6094 49.4492 31.2539 48.6289C31.0781 46.8516 30.9902 45.9238 30.9902 45.8457C31.0293 44.7324 31.4492 44.0098 32.25 43.6777C32.9531 43.3848 34.2031 43.1895 36 43.0918C40.8438 37.1934 44.7402 31.4316 47.6895 25.8066C46.7324 26.3145 45.0137 26.9688 42.5332 27.7695C38.5684 29.0586 35.834 29.9668 34.3301 30.4941C32.2012 31.2559 31.1367 32.584 31.1367 34.4785C31.1367 34.8691 31.1758 35.2988 31.2539 35.7676C31.3711 36.4902 31.1855 36.8516 30.6973 36.8516C30.3457 36.8516 30.0918 36.6953 29.9355 36.3828C28.8613 34.1367 28.2266 32.5547 28.0312 31.6367C27.8555 30.8164 27.7676 30.3867 27.7676 30.3477C27.7676 29.6641 28.0898 29.0391 28.7344 28.4727C29.9062 27.4766 32.1328 26.7344 35.4141 26.2461C40.3359 25.5039 44.5742 24.3418 48.1289 22.7598C48.5586 22.3301 48.793 22.0859 48.832 22.0273C48.9297 21.8906 49.0273 21.627 49.125 21.2363C49.2422 20.8457 49.4375 20.6504 49.7109 20.6504C50.1602 20.6504 50.834 21.1289 51.7324 22.0859C52.0254 22.418 52.1719 22.75 52.1719 23.082C52.1719 23.2773 51.8398 23.9512 51.1758 25.1035C49.7305 27.6621 47.7969 30.7578 45.375 34.3906C42.6797 38.4531 40.5898 41.334 39.1055 43.0332C43.7539 43.0332 47.3965 42.916 50.0332 42.6816C50.3066 39.9473 50.9023 36.0508 51.8203 30.9922C52.2891 28.5117 52.7578 26.0313 53.2266 23.5508C53.5195 21.4414 54.9355 19.8984 57.4746 18.9219C57.8652 18.7656 58.1875 18.6875 58.4414 18.6875C58.8711 18.6875 59.0859 18.873 59.0859 19.2441C59.0859 19.5957 58.8906 20.0449 58.5 20.5918ZM79.1836 36.9688C79.1836 39.5273 78.8418 41.9688 78.1582 44.293C77.9434 44.9961 77.6504 45.3477 77.2793 45.3477C77.0059 45.3477 76.4004 44.957 75.4629 44.1758C74.9941 43.7852 74.877 43.2285 75.1113 42.5059C75.6582 40.7285 75.9316 39.3027 75.9316 38.2285C75.9316 37.8574 75.8535 37.6719 75.6973 37.6719C75.4629 37.6719 75.082 38.0234 74.5547 38.7266C70.4922 44.0195 67.4551 49.957 65.4434 56.5391C64.7988 58.6289 64.252 59.6738 63.8027 59.6738C63.627 59.6738 62.8555 59.332 61.4883 58.6484C60.8242 58.3164 60.5996 57.6719 60.8145 56.7148C62.3574 49.957 64.0176 44.2539 65.7949 39.6055C64.3496 41.1289 63.4316 42.1738 63.041 42.7402C62.8848 42.9746 62.6699 43.0918 62.3965 43.0918C62.0645 43.0918 61.8984 42.9453 61.8984 42.6523C61.8984 42.4766 61.9766 42.2812 62.1328 42.0664C63.0898 40.9141 64.3691 39.1562 65.9707 36.793C66.459 35.9336 66.9473 35.5039 67.4355 35.5039C67.7871 35.5039 68.5 35.7773 69.5742 36.3242C70.1797 36.6367 70.2773 37.0566 69.8672 37.584C69.4375 38.1504 68.627 40.1523 67.4355 43.5898C66.3027 46.9297 65.5215 49.5469 65.0918 51.4414C67.748 45.5234 70.7656 40.2988 74.1445 35.7676C74.7891 34.9082 75.3066 34.4785 75.6973 34.4785C76.0488 34.4785 76.5273 34.7129 77.1328 35.1816C77.9531 35.2793 78.4707 35.4062 78.6855 35.5625C79.0176 35.7969 79.1836 36.2656 79.1836 36.9688ZM96.1172 21.6172C96.6641 21.9102 96.9375 22.2422 96.9375 22.6133C96.9375 22.8672 96.752 22.9941 96.3809 22.9941C96.3027 22.9941 96.1758 22.9844 96 22.9648C95.8438 22.9258 95.7266 22.9062 95.6484 22.9062C94.9062 22.9062 94.0078 23.7168 92.9531 25.3379C92.0156 26.7832 90.7168 29.9277 89.0566 34.7715C88.9004 35.2012 88.8418 35.4551 88.8809 35.5332C88.9395 35.6699 89.1934 35.748 89.6426 35.7676C90.7949 35.8652 92.3379 35.8262 94.2715 35.6504C94.9355 35.5918 95.2676 35.875 95.2676 36.5C95.2676 36.9297 95.0137 37.1934 94.5059 37.291C94.0957 37.3496 91.9375 37.5254 88.0312 37.8184C85.6875 44.6738 84.2617 50.4746 83.7539 55.2207C83.7344 55.4746 83.7246 55.6992 83.7246 55.8945C83.7246 56.5586 83.8906 56.8906 84.2227 56.8906C84.75 56.8906 86.3418 55.6113 88.998 53.0527C89.3105 52.7402 89.6133 52.584 89.9062 52.584C90.1602 52.584 90.3164 52.6914 90.375 52.9062C90.4336 53.1406 90.3457 53.4141 90.1113 53.7266C88.5293 55.8164 86.9766 57.5938 85.4531 59.0586C84.8086 59.6641 84.2715 59.9668 83.8418 59.9668C83.4121 59.9668 82.748 59.625 81.8496 58.9414C80.7363 58.6484 80.1797 58.0625 80.1797 57.1836C80.1797 57.0469 80.1992 56.8906 80.2383 56.7148C80.9609 51.6758 82.377 45.4746 84.4863 38.1113C83.4512 37.9746 82.5137 37.8379 81.6738 37.7012C81.3027 37.6426 81.1172 37.4082 81.1172 36.998C81.1172 36.5488 81.3125 36.2754 81.7031 36.1777C82.0938 36.0801 82.8164 35.8652 83.8711 35.5332C84.5156 35.3184 85.1406 35.0254 85.7461 34.6543C87.8359 28.1895 89.4766 24 90.668 22.0859C91.3516 20.9922 92.084 20.4453 92.8652 20.4453C93.6074 20.4453 94.6914 20.8359 96.1172 21.6172ZM123.041 43.8828C123.314 44.1367 123.451 44.4102 123.451 44.7031C123.451 45.2891 123.188 45.582 122.66 45.582C122.543 45.582 122.152 45.3672 121.488 44.9375C121.176 44.7227 120.912 44.5664 120.697 44.4688C118.236 51.2461 116.137 55.8457 114.398 58.2676C113.734 59.2051 113.051 59.6738 112.348 59.6738C112.035 59.6738 111.352 59.5078 110.297 59.1758C109.398 58.8828 108.842 58.6289 108.627 58.4141C108.412 58.1992 108.188 57.6523 107.953 56.7734C107.074 53.2578 106.635 50.377 106.635 48.1309C105.678 49.498 104.076 51.5195 101.83 54.1953C99.7012 56.7539 98.4023 58.375 97.9336 59.0586C97.6992 59.4297 97.3672 59.6152 96.9375 59.6152C96.3906 59.6152 95.5312 59.166 94.3594 58.2676C94.0664 58.0527 93.9199 57.8477 93.9199 57.6523C93.9199 57.3594 94.3203 56.9102 95.1211 56.3047C95.7852 54.3711 96.3613 51.8906 96.8496 48.8633C97.3184 45.8945 97.5527 43.3457 97.5527 41.2168C97.5527 40.1426 97.4844 39.3125 97.3477 38.7266C96.9375 39.1367 96.0781 40.1914 94.7695 41.8906C94.5547 42.1836 94.3008 42.3301 94.0078 42.3301C93.5781 42.3301 93.3633 42.125 93.3633 41.7148C93.3633 41.5391 93.4316 41.3633 93.5684 41.1875C94.1738 40.4062 95.0332 39.1465 96.1465 37.4082C96.498 36.7441 96.957 36.2949 97.5234 36.0605C97.6602 36.002 98.4023 35.8066 99.75 35.4746C100.102 35.3965 100.375 35.3574 100.57 35.3574C100.922 35.3574 101.137 35.543 101.215 35.9141C101.273 36.1875 101.303 36.8613 101.303 37.9355C101.303 44.0684 100.629 49.4102 99.2812 53.9609C102.855 50.4453 105.287 47.0273 106.576 43.707C106.732 41.8516 106.889 40.5234 107.045 39.7227C107.299 38.375 107.709 37.2227 108.275 36.2656C108.744 35.4258 109.262 35.0059 109.828 35.0059C110.297 35.0059 111.02 35.3477 111.996 36.0312C112.543 36.4023 112.816 36.7441 112.816 37.0566C112.816 37.2324 112.66 37.75 112.348 38.6094C111.762 40.25 111.039 41.666 110.18 42.8574C110.004 44.1465 109.916 45.4844 109.916 46.8711C109.916 49.7422 110.307 52.7207 111.088 55.8066C111.303 56.666 111.576 57.0957 111.908 57.0957C112.279 57.0957 112.729 56.5879 113.256 55.5723C116.166 49.9473 117.963 45.709 118.646 42.8574C118.393 42.5254 118.129 42.1738 117.855 41.8027C117.582 41.4121 117.445 41.002 117.445 40.5723C117.445 40.1816 117.543 39.7227 117.738 39.1953C117.934 38.2969 118.129 37.4082 118.324 36.5293C118.637 35.377 119.154 34.8008 119.877 34.8008C120.463 34.8008 121.254 35.084 122.25 35.6504C122.836 36.002 123.129 36.5684 123.129 37.3496C123.129 37.9941 122.904 38.8633 122.455 39.957C122.123 40.7383 121.791 41.5293 121.459 42.3301C121.635 42.5449 122.162 43.0625 123.041 43.8828ZM143.344 40.4551C143.305 42.1934 142.885 44.498 142.084 47.3691C140.814 51.9004 139.018 55.416 136.693 57.916C135.463 59.2441 134.096 59.9082 132.592 59.9082C132.006 59.9082 131.254 59.7812 130.336 59.5273C128.5 59.4102 127.006 58.834 125.854 57.7988C124.604 56.666 124.018 55.2109 124.096 53.4336C124.174 51.3633 124.887 48.4727 126.234 44.7617C127.719 40.7188 129.262 37.8086 130.863 36.0312C131.625 35.1719 132.25 34.7422 132.738 34.7422C133.402 34.7422 134.477 35.4258 135.961 36.793C136.371 36.5977 137.211 36.2363 138.48 35.709C139.125 35.4941 139.613 35.3867 139.945 35.3867C140.707 35.3867 141.557 36.0996 142.494 37.5254C143.1 38.4043 143.383 39.3809 143.344 40.4551ZM139.975 41.3047C140.111 39.9961 140.18 39.166 140.18 38.8145C140.18 37.9941 139.926 37.584 139.418 37.584C139.223 37.584 138.969 37.623 138.656 37.7012L134.115 39.5469C133.588 39.7617 133.285 39.8691 133.207 39.8691C133.051 39.8691 132.895 39.6836 132.738 39.3125C131.605 40.6992 130.551 42.7012 129.574 45.3184C128.812 47.3691 128.285 49.2051 127.992 50.8262C127.777 51.9199 127.67 52.916 127.67 53.8145C127.67 56.8223 128.598 58.2871 130.453 58.209C131.195 58.1895 131.996 57.8965 132.855 57.3301C134.496 56.2168 136.029 53.9902 137.455 50.6504C138.822 47.5059 139.662 44.3906 139.975 41.3047ZM163.969 36.9688C163.969 39.5273 163.627 41.9688 162.943 44.293C162.729 44.9961 162.436 45.3477 162.064 45.3477C161.791 45.3477 161.186 44.957 160.248 44.1758C159.779 43.7852 159.662 43.2285 159.896 42.5059C160.443 40.7285 160.717 39.3027 160.717 38.2285C160.717 37.8574 160.639 37.6719 160.482 37.6719C160.248 37.6719 159.867 38.0234 159.34 38.7266C155.277 44.0195 152.24 49.957 150.229 56.5391C149.584 58.6289 149.037 59.6738 148.588 59.6738C148.412 59.6738 147.641 59.332 146.273 58.6484C145.609 58.3164 145.385 57.6719 145.6 56.7148C147.143 49.957 148.803 44.2539 150.58 39.6055C149.135 41.1289 148.217 42.1738 147.826 42.7402C147.67 42.9746 147.455 43.0918 147.182 43.0918C146.85 43.0918 146.684 42.9453 146.684 42.6523C146.684 42.4766 146.762 42.2812 146.918 42.0664C147.875 40.9141 149.154 39.1562 150.756 36.793C151.244 35.9336 151.732 35.5039 152.221 35.5039C152.572 35.5039 153.285 35.7773 154.359 36.3242C154.965 36.6367 155.062 37.0566 154.652 37.584C154.223 38.1504 153.412 40.1523 152.221 43.5898C151.088 46.9297 150.307 49.5469 149.877 51.4414C152.533 45.5234 155.551 40.2988 158.93 35.7676C159.574 34.9082 160.092 34.4785 160.482 34.4785C160.834 34.4785 161.312 34.7129 161.918 35.1816C162.738 35.2793 163.256 35.4062 163.471 35.5625C163.803 35.7969 163.969 36.2656 163.969 36.9688ZM190.395 62.1055C188.578 64.918 187.113 66.3242 186 66.3242C184.633 66.3242 182.67 64.4883 180.111 60.8164C177.572 57.1641 175.395 53.0625 173.578 48.5117C171.254 51.3828 169.643 54.7422 168.744 58.5898C168.529 59.4492 168.275 59.8789 167.982 59.8789C167.865 59.8789 167.631 59.8105 167.279 59.6738C165.658 58.9707 164.848 58.2578 164.848 57.5352C164.848 57.4375 164.965 56.7832 165.199 55.5723C167.445 43.1699 170.375 32.5742 173.988 23.7852C176.684 17.2227 179.115 12.9453 181.283 10.9531C181.83 10.4258 182.367 10.1621 182.895 10.1621C183.441 10.1621 184.145 10.4844 185.004 11.1289C185.98 11.9297 186.957 12.7305 187.934 13.5312C188.207 13.7266 188.344 13.9414 188.344 14.1758C188.344 14.5273 188.119 14.7031 187.67 14.7031C187.455 14.7031 187.24 14.6445 187.025 14.5273C186.127 14.0781 185.453 13.8535 185.004 13.8535C183.773 13.8535 182.426 15.0449 180.961 17.4277C175.707 26.002 171.928 37.1836 169.623 50.9727C170.092 50.0156 171.156 48.1895 172.816 45.4941C172.602 44.8105 172.494 44.4102 172.494 44.293C172.494 43.8242 173.158 43.4629 174.486 43.209C177.143 39.3418 179.32 36.7441 181.02 35.416C181.625 34.9473 182.094 34.7129 182.426 34.7129C182.758 34.7129 183.373 35.1914 184.271 36.1484C185.678 36.7148 186.381 37.418 186.381 38.2578C186.381 38.5312 186.342 38.8828 186.264 39.3125C185.893 40.9336 185.365 42.3594 184.682 43.5898C184.33 44.2344 183.959 44.5566 183.568 44.5566C183.295 44.5566 182.865 44.4492 182.279 44.2344C181.166 43.8438 180.609 43.4434 180.609 43.0332C180.609 42.7793 180.785 42.584 181.137 42.4473C181.957 41.7441 182.465 40.3574 182.66 38.2871C182.699 37.7988 182.572 37.5547 182.279 37.5547C182.104 37.5547 181.869 37.6621 181.576 37.877C179.428 39.4395 177.582 41.7051 176.039 44.6738C179.008 53.834 182.387 59.5664 186.176 61.8711C186.645 62.1445 187.123 62.2812 187.611 62.2812C188.314 62.2812 188.852 62.0762 189.223 61.666C189.594 61.2559 189.926 61.0508 190.219 61.0508C190.492 61.0508 190.629 61.1973 190.629 61.4902C190.629 61.666 190.551 61.8711 190.395 62.1055ZM201.469 35.5332C201.469 36.4121 201.234 37.8184 200.766 39.752C200.59 40.416 200.395 40.8457 200.18 41.041C200.082 41.1387 199.75 41.2852 199.184 41.4805C198.461 41.7539 198.012 41.8906 197.836 41.8906C197.543 41.8906 197.396 41.6953 197.396 41.3047C197.396 41.0898 197.436 40.8066 197.514 40.4551C197.982 38.5215 198.158 37.1836 198.041 36.4414C197.943 35.6797 198.168 35.2012 198.715 35.0059C199.672 34.5176 200.287 34.2734 200.561 34.2734C201.166 34.2734 201.469 34.6934 201.469 35.5332ZM196.781 52.3496C196.84 54.6934 195.541 56.2949 192.885 57.1543C192.553 57.9746 192.24 58.541 191.947 58.8535C191.498 59.3223 190.834 59.5957 189.955 59.6738C189.389 59.7129 188.783 59.6836 188.139 59.5859C186.986 59.4102 185.57 59.1953 183.891 58.9414C183.422 58.8633 183.139 58.5801 183.041 58.0918C183.119 57.5645 183.666 57.252 184.682 57.1543C186.068 57.0566 188.119 56.8125 190.834 56.4219C191.85 56.1875 192.572 55.6113 193.002 54.6934C193.256 54.2246 193.383 53.6484 193.383 52.9648C193.383 51.7344 192.768 49.5664 191.537 46.4609C190.326 43.4336 189.76 41.4121 189.838 40.3965C189.994 37.9551 192.25 36.2559 196.605 35.2988C197.035 35.2012 197.25 35.3574 197.25 35.7676C197.25 36.002 197.094 36.1875 196.781 36.3242C194.672 37.2422 193.617 38.375 193.617 39.7227C193.617 40.25 193.715 40.9141 193.91 41.7148C194.105 42.4961 194.691 44.3906 195.668 47.3984C196.391 49.5664 196.762 51.2168 196.781 52.3496Z" fill="black"/>
<path d="M21 70.1621H201V73.6777H21V70.1621Z" fill="black"/>
<ellipse cx="18" cy="14" rx="6" ry="6" fill="#2F1D03"/>
<ellipse cx="202" cy="14" rx="6" ry="6" fill="#2F1D03"/>
<ellipse cx="18" cy="86" rx="6" ry="6" fill="#2F1D03"/>
<ellipse cx="202" cy="86" rx="6" ry="6" fill="#2F1D03"/>
</svg>
