<svg width="80" height="80" viewBox="0 0 80 80" fill="none" xmlns="http://www.w3.org/2000/svg">
<path d="M47.3258 14.9547C46.5188 16.4717 45.2198 16.9156 43.4288 16.2864C41.0678 14.3629 40.0884 11.8022 40.4906 8.60438C40.5878 7.83258 40.703 7.06278 40.8361 6.29498C41.0558 5.0373 41.0239 4.08155 40.8062 2.90985C40.8026 2.8916 40.7952 2.87432 40.7844 2.85919C40.7736 2.84406 40.7597 2.83142 40.7436 2.82214C40.7275 2.81285 40.7096 2.80713 40.6911 2.80536C40.6726 2.80359 40.6539 2.80581 40.6364 2.81187C36.268 4.29949 31.9835 6.55091 28.468 9.56014C22.4411 14.7161 18.3211 21.1198 16.108 28.7712C15.7378 30.0495 15.4575 31.3505 15.267 32.6742C14.494 38.0428 14.6279 43.7773 16.098 49.026C16.5907 50.7842 17.078 52.2691 17.5601 53.4808C18.8331 56.6813 20.6288 59.7599 22.9472 62.7164C23.7681 63.7642 24.8148 64.8759 25.7615 65.9536C27.0652 67.4386 28.8749 68.9755 31.1905 70.5644C37.81 75.1059 45.1586 77.3327 53.2362 77.2447C57.1471 77.202 60.9043 76.5455 64.5076 75.2752C64.738 76.1203 65.0889 76.9714 65.5603 77.8285C64.5136 78.2524 63.7972 78.513 63.4111 78.6103C58.0799 79.954 52.2594 80.4299 46.8164 79.5621C36.4325 77.9092 27.9201 73.0664 21.2793 65.0338C17.5055 60.4683 14.8489 55.2024 13.3096 49.2359C12.978 47.9522 12.7117 46.6466 12.5106 45.3189C11.7755 40.4908 11.8341 35.7854 12.6864 31.2026C12.9993 29.5163 13.5779 27.4322 14.4221 24.9502C15.1745 22.7414 16.2618 20.4593 17.6839 18.1039C21.535 11.7316 27.1378 6.07104 33.7872 2.68591C35.8166 1.65284 37.8067 0.797728 39.7575 0.120569C40.5298 -0.147362 41.1144 0.0312586 41.5113 0.656431C41.745 1.02634 41.699 1.42423 41.687 1.85612C41.6858 1.88893 41.6924 1.92161 41.7063 1.9515C41.7202 1.98138 41.7409 2.00762 41.7669 2.02808C42.518 2.62126 42.9953 3.03182 43.1991 3.25976C43.8849 4.02756 44.6985 5.14394 45.6399 6.6089C47.0541 8.80633 48.5682 12.3754 47.3258 14.9547Z" fill="#3C3C3B"/>
<path d="M47.3096 14.9561C47.2497 15.256 47.3156 15.5906 47.5073 15.9598C47.779 16.4877 47.9181 16.7583 47.9248 16.7716C50.8623 23.7005 53.16 29.1957 54.8179 33.2573C54.8778 33.4066 54.8958 33.6206 54.8718 33.8992C53.977 35.1868 52.6607 35.9666 50.9229 36.2386C50.5421 36.2986 50.0174 36.1952 49.349 35.9286C49.1133 35.6234 48.9661 35.3648 48.9075 35.1528C47.2616 29.1851 45.6104 23.2173 43.9539 17.2495C43.9512 17.2388 43.9386 17.1095 43.916 16.8616C43.8946 16.6283 43.7269 16.437 43.4126 16.2877C45.2036 16.9169 46.5026 16.473 47.3096 14.9561ZM51.662 35.1708L45.5538 17.3254C45.5312 17.2561 45.4859 17.2341 45.418 17.2595C45.1277 17.3661 44.8301 17.3821 44.5252 17.3074C44.5022 17.3015 44.4781 17.3018 44.4553 17.3082C44.4324 17.3147 44.4117 17.3271 44.3953 17.3441C44.3788 17.3612 44.3672 17.3824 44.3616 17.4055C44.356 17.4285 44.3566 17.4527 44.3634 17.4754C46.0119 23.2006 47.6478 28.9211 49.2711 34.637C49.5407 35.5827 50.833 35.5847 51.5741 35.3448C51.5914 35.3394 51.6075 35.3305 51.6213 35.3188C51.6352 35.307 51.6465 35.2926 51.6547 35.2764C51.6629 35.2602 51.6678 35.2425 51.669 35.2244C51.6703 35.2062 51.6679 35.188 51.662 35.1708Z" fill="#C6C5C4"/>
<path d="M45.5696 17.3252L51.6777 35.1706C51.6836 35.1878 51.686 35.206 51.6848 35.2241C51.6835 35.2422 51.6787 35.2599 51.6705 35.2761C51.6623 35.2924 51.6509 35.3068 51.6371 35.3185C51.6232 35.3303 51.6072 35.3391 51.5898 35.3445C50.8488 35.5845 49.5564 35.5825 49.2868 34.6367C47.6635 28.9208 46.0277 23.2003 44.3791 17.4751C44.3723 17.4524 44.3717 17.4282 44.3773 17.4052C44.3829 17.3821 44.3946 17.361 44.411 17.3439C44.4275 17.3268 44.4482 17.3144 44.471 17.3079C44.4938 17.3015 44.5179 17.3012 44.5409 17.3072C44.8458 17.3818 45.1435 17.3658 45.4338 17.2592C45.5017 17.2339 45.5469 17.2559 45.5696 17.3252Z" fill="#F5F5F5"/>
<path d="M54.892 33.8975C55.9121 37.3499 56.972 40.8163 58.0719 44.2968C58.0972 44.3728 58.0361 44.3967 58.0719 44.4172C58.0267 44.4185 58.1453 44.566 58.136 44.5967C57.8816 44.422 57.6618 44.3681 57.3369 44.3628C56.0026 44.3414 54.5851 44.3428 53.0844 44.3668C52.8859 44.3148 52.7455 44.3281 52.6629 44.4068L49.3691 35.9269C50.0376 36.1935 50.5623 36.2968 50.9431 36.2369C52.6809 35.9649 53.9972 35.1851 54.892 33.8975Z" fill="#f55858"/>
<path d="M60.1278 51.2969C62.7351 59.768 65.3571 68.0412 67.9498 76.4443C68.0536 76.7829 67.9917 77.1128 67.764 77.4341C67.1674 78.2725 66.4324 78.4045 65.5588 77.83C65.0874 76.9729 64.7366 76.1217 64.5062 75.2766L58.1304 58.495C59.5219 58.0111 60.1225 57.0327 60.0679 55.6037C60.0107 54.1627 60.0159 52.8365 60.1278 51.2969Z" fill="#f55858"/>
<path d="M52.5283 44.1003L58.1211 58.4966L60.518 58.3967L60.2184 51.5984L57.9214 43.9004L52.5283 44.1003Z" fill="#f55858"/>
</svg>
