<svg width="24" height="24" viewBox="0 0 40 40" fill="none" xmlns="http://www.w3.org/2000/svg">
<g clip-path="url(#clip0_58_26929)">
<path d="M18.7803 0.0340233C11.321 0.505898 4.72409 5.08715 1.71471 11.8903C-0.0571604 15.8965 -0.46966 20.4028 0.54909 24.6559C1.99284 30.6903 6.23034 35.7809 11.8897 38.284C12.9397 38.7465 14.2272 39.184 15.2866 39.434C20.3272 40.634 25.4897 39.8965 29.9522 37.3434C32.4835 35.8934 34.7397 33.8246 36.4272 31.4059C39.146 27.5059 40.3928 22.6309 39.8866 17.8903C39.3803 13.1403 37.2397 8.8184 33.7491 5.48402C31.446 3.28402 28.6022 1.66215 25.4866 0.768398C23.3897 0.165272 20.9335 -0.103477 18.7803 0.0340233ZM21.8116 1.88715C25.6616 2.3184 28.9678 3.73402 31.8397 6.17465C32.3116 6.57777 33.346 7.6059 33.7397 8.06215C34.7835 9.27777 35.5928 10.5028 36.3116 11.9528C37.3116 13.9746 37.8553 15.8653 38.1147 18.2028C38.1928 18.9121 38.1928 21.0434 38.1147 21.7653C37.7803 24.8246 36.8303 27.5184 35.2272 29.9684C32.3241 34.3934 27.6085 37.3559 22.3741 38.0434C21.4991 38.159 21.2491 38.1715 20.0147 38.1715C18.7116 38.1715 18.4928 38.159 17.4522 38.0121C14.821 37.6465 12.2616 36.684 10.046 35.234C5.73971 32.4184 2.78971 27.8496 2.01784 22.8121C1.84909 21.7153 1.82721 21.3871 1.82721 20.0153C1.82721 18.709 1.84909 18.3621 1.98659 17.4059C2.36159 14.7778 3.36471 12.1434 4.82096 9.95277C7.22721 6.3434 10.7897 3.72777 14.9741 2.50277C16.0553 2.18715 17.4053 1.9434 18.6397 1.8434C19.1897 1.79965 21.2803 1.82777 21.8116 1.88715Z" fill="black"/>
<path d="M23.25 8.64062C20.9125 8.9625 18.9 10.3719 17.8125 12.4469C17.0688 13.8656 16.8188 15.5844 17.1281 17.1812C17.3469 18.3156 17.8594 19.4219 18.575 20.3094L18.7875 20.5719L18.425 20.9344L18.0625 21.2969L17.9281 21.1625C17.7688 21.0062 17.6219 20.9656 17.4813 21.0406C17.4313 21.0687 15.7344 22.7469 13.7125 24.7719L10.0312 28.4531V28.5875C10.0312 28.6625 10.05 28.7594 10.075 28.8062C10.125 28.8969 11.0594 29.8344 11.1875 29.9187C11.2281 29.9469 11.3281 29.9688 11.4063 29.9688H11.5469L15.2281 26.2875C17.2531 24.2656 18.9313 22.5687 18.9594 22.5187C19.0344 22.3781 18.9938 22.2312 18.8375 22.0719L18.7031 21.9375L19.0656 21.575L19.4281 21.2125L19.6906 21.425C20.725 22.2594 22.0844 22.8187 23.4438 22.9656C23.825 23.0094 24.5844 23.0094 24.9531 22.9688C26.5969 22.7844 28.0438 22.1125 29.2156 20.9844C29.8281 20.3938 30.2875 19.7625 30.6719 18.9844C31.0313 18.2562 31.2219 17.6344 31.3438 16.8219C31.4188 16.3 31.4281 15.375 31.3625 14.875C31.1531 13.3 30.4688 11.8906 29.3781 10.7687C28.7531 10.1313 28.1406 9.6875 27.375 9.31562C26.6406 8.95938 25.9219 8.74375 25.1469 8.64062C24.6969 8.58438 23.675 8.58125 23.25 8.64062ZM24.8844 10.4844C27.6313 10.8438 29.6656 13.2437 29.5531 15.9844C29.5063 17.0469 29.2281 17.9 28.6406 18.7812C27.575 20.375 25.6656 21.3 23.7844 21.1281C22.4344 21.0094 21.3063 20.4719 20.3719 19.5125C19.9 19.0219 19.6563 18.6719 19.3625 18.0625C18.5625 16.3875 18.7094 14.4 19.75 12.8375C20.8844 11.1344 22.875 10.2219 24.8844 10.4844Z" fill="black"/>
</g>
<defs>
<clipPath id="clip0_58_26929">
<rect width="40" height="40" fill="white"/>
</clipPath>
</defs>
</svg>
